<svg width="676" height="202" viewBox="0 0 676 202" fill="none" xmlns="http://www.w3.org/2000/svg">
<path d="M284.313 0C287.808 1.21208 290.438 2.63744 293.359 4.82517C293.153 5.46596 292.947 6.10674 292.735 6.76683C292.464 7.61895 292.193 8.47108 291.914 9.34926C291.646 10.1888 291.378 11.0284 291.102 11.8931C289.58 17.0773 288.972 21.6486 289.339 27.021C290.334 27.6579 291.329 28.2948 292.354 28.951C292.354 29.588 292.354 30.2249 292.354 30.8811C292.936 31.1562 293.519 31.4312 294.119 31.7149C313.446 41.1095 327.006 51.5753 334.656 71.3373C336.504 77.2308 336.87 83.0316 336.957 89.1451C336.971 89.8805 336.985 90.6149 337 91.3724C336.923 99.8821 332.525 105.095 326.529 110.979C325.223 112.08 323.903 113.166 322.57 114.236C319.438 116.764 317.049 119.418 314.593 122.559C307.879 130.81 299.111 136.009 288.334 138C284.509 137.537 281.872 136.427 278.624 134.468C277.311 133.682 277.311 133.682 275.972 132.881C275.056 132.322 274.138 131.761 273.194 131.185C272.25 130.614 271.307 130.043 270.335 129.456C268.463 128.32 266.594 127.18 264.727 126.037C262.629 124.752 260.525 123.48 258.415 122.213C247.163 115.288 239.351 107.866 235.69 95.2374C233.25 82.0579 237.756 66.5421 245.364 55.4297C251.448 47.9449 259.404 42.1595 267.195 36.4079C269.448 34.7229 269.448 34.7229 271.246 31.8462C258.791 29.504 246.322 27.3221 233.789 25.3881C232.818 25.2366 231.846 25.0851 230.845 24.9288C229.985 24.7966 229.123 24.6644 228.237 24.5283C226.015 24.1259 226.015 24.1259 223 23.1608C224.374 17.72 228.553 14.7708 233.051 11.5804C242.003 6.41459 251.768 5.05292 262.058 7.41533C267.799 9.47761 275.425 12.8485 278.282 18.3357C278.55 17.416 278.816 16.4973 279.091 15.5496C279.446 14.3395 279.801 13.1293 280.167 11.8815C280.692 10.0846 280.692 10.0846 281.227 8.25201C282.118 5.41578 283.109 2.72333 284.313 0Z" fill="#FEF112"/>
<path d="M170.664 47.3168C173.586 49.4095 175.988 51.7597 178.443 54.343C178.93 53.89 179.419 53.436 179.921 52.9684C187.705 46.0492 193.757 44.0798 204.439 44.3758C210.133 44.957 214.472 46.3856 218.539 50.3291C222.999 55.6868 225.032 60.8517 225 67.7555C225 68.8544 224.999 69.9543 224.999 71.0869C224.989 72.2591 224.978 73.4312 224.967 74.6391C224.964 75.8498 224.961 77.0615 224.958 78.3098C224.949 81.514 224.931 84.7182 224.909 87.9224C224.888 91.1988 224.879 94.4753 224.869 97.7508C224.847 104.168 224.812 110.584 224.771 117C218.124 117 211.477 117 204.628 117C204.613 115.575 204.598 114.151 204.583 112.682C204.524 107.381 204.447 102.08 204.363 96.7782C204.33 94.4869 204.302 92.1956 204.279 89.9033C204.246 86.6037 204.192 83.3041 204.136 80.0044C204.13 78.9855 204.124 77.9657 204.117 76.915C204 71.2411 203.481 67.0557 200.6 62.0547C198.077 60.0564 196.889 60.1075 193.612 60.308C188.984 61.483 186.381 62.6764 183.73 66.5737C181.173 73.0572 181.285 80.0199 181.145 86.8765C181.114 88.1759 181.114 88.1759 181.081 89.5013C181.016 92.2418 180.956 94.9814 180.897 97.7209C180.854 99.59 180.809 101.459 180.765 103.327C180.657 107.885 180.558 112.442 180.457 117C173.81 117 167.163 117 160.314 117C160.284 114.76 160.284 114.76 160.254 112.475C160.177 106.932 160.088 101.391 159.994 95.8489C159.956 93.4506 159.92 91.0523 159.889 88.654C159.843 85.2059 159.784 81.7579 159.724 78.3098C159.712 77.2389 159.701 76.1669 159.689 75.0632C159.669 74.0597 159.648 73.0563 159.628 72.0229C159.614 71.1428 159.601 70.2637 159.587 69.3566C159.274 66.5795 158.639 64.534 157.293 62.0547C153.246 60.1962 150.272 59.8077 146.025 61.031C142.481 62.5357 140.539 64.4154 138.827 67.8374C136.656 74.0887 136.969 81.1997 136.831 87.7238C136.81 88.5672 136.789 89.4107 136.767 90.2802C136.703 92.9407 136.642 95.6022 136.583 98.2636C136.54 100.082 136.495 101.9 136.451 103.718C136.343 108.145 136.243 112.573 136.143 117C129.496 117 122.849 117 116 117C116 93.4603 116 69.9205 116 45.6675C122.315 45.6675 128.63 45.6675 135.136 45.6675C135.468 48.2123 135.8 50.7571 136.143 53.3791C136.558 52.9954 136.974 52.6108 137.402 52.2156C146.404 44.3112 159.47 40.9933 170.664 47.3168Z" fill="#F1DA2F"/>
<path d="M501.768 48.4086C510.26 54.2337 514.286 61.6871 516.275 71.4455C518.027 83.7163 516.931 96.9243 509.342 107.245C504.155 113.592 498.565 117.297 490.19 118.365C482.032 118.667 475.634 117.71 468.902 113.078C467.916 112.123 466.93 111.167 465.914 110.183C465.586 121.012 465.257 131.842 464.919 143C458.345 143 451.772 143 445 143C445 110.829 445 78.6586 445 45.513C451.244 45.513 457.489 45.513 463.923 45.513C464.251 48.0611 464.58 50.6093 464.919 53.2347C465.33 52.8505 465.74 52.4654 466.163 52.0697C476.14 43.2003 489.943 41.1424 501.768 48.4086ZM468.614 65.4428C464.276 72.3702 463.866 80.589 465.378 88.4352C466.955 93.686 469.613 97.8751 473.882 101.496C477.936 102.805 481.594 102.967 485.833 102.461C490.267 100.312 492.672 98.1077 494.796 93.7739C496.039 89.6756 496.05 85.7114 496.103 81.4673C496.147 80.3477 496.147 80.3477 496.191 79.2049C496.253 73.6356 495.037 69.4619 491.809 64.8173C487.598 61.0279 484.842 59.6244 479.021 59.7277C474.663 60.2615 471.323 62.0867 468.614 65.4428Z" fill="#4CA780"/>
<path d="M240.053 66C251.808 71.1667 261.94 77.5786 270.32 87.12C270.575 87.9533 270.829 88.7856 271.093 89.6438C272.205 92.28 272.205 92.28 275.763 93.2285C277.241 93.5616 278.728 93.863 280.219 94.1395C281.418 94.3747 281.418 94.3747 282.641 94.6147C299.659 97.6282 317.582 97.1405 332.947 89.0285C334.89 88.08 334.89 88.08 336.908 88.08C337.365 96.2314 336.253 100.872 330.665 107.22C328.21 109.816 325.659 112.12 322.846 114.36C319.702 116.875 317.304 119.515 314.838 122.64C308.099 130.848 299.298 136.02 288.48 138C284.641 137.539 281.994 136.435 278.734 134.486C277.417 133.705 277.417 133.705 276.073 132.908C275.153 132.351 274.231 131.794 273.284 131.22C272.337 130.652 271.389 130.085 270.414 129.5C268.535 128.37 266.659 127.236 264.785 126.1C262.68 124.821 260.567 123.556 258.449 122.295C247.156 115.406 239.314 108.023 235.639 95.4605C233.684 85.2797 236.519 75.5578 240.053 66Z" fill="#FCBB30"/>
<path d="M600 45C606.93 45 613.86 45 621 45C623.73 50.9514 626.159 56.6867 628.234 62.8386C628.517 63.6651 628.8 64.4917 629.092 65.3434C629.982 67.948 630.866 70.5535 631.75 73.16C632.358 74.9419 632.966 76.7219 633.574 78.5029C635.054 82.837 636.529 87.1732 638 91.5102C642.075 82.1103 645.371 72.4546 648.75 62.8047C649.358 61.0751 649.966 59.3455 650.574 57.6159C652.053 53.4116 653.526 49.2053 655 45C661.93 45 668.86 45 676 45C672.625 55.9018 672.625 55.9018 671.058 60.0461C670.707 60.9792 670.356 61.9123 669.994 62.8735C669.622 63.8521 669.25 64.8318 668.867 65.8405C668.471 66.8898 668.075 67.9392 667.667 69.0206C666.829 71.2376 665.991 73.4546 665.15 75.6706C663.897 78.9777 662.647 82.2857 661.398 85.5947C659.35 91.0161 657.291 96.4335 655.226 101.849C653.994 105.09 652.773 108.335 651.552 111.581C650.767 113.649 649.981 115.718 649.195 117.786C648.846 118.722 648.497 119.657 648.137 120.621C644.91 129.062 641.403 138.108 633 142.865C627.459 144.826 622.496 145.072 616.688 144.985C615.472 144.984 615.472 144.984 614.232 144.983C608.282 144.94 608.282 144.94 606 143.834C605.688 141.204 605.487 138.661 605.375 136.022C605.336 135.287 605.298 134.552 605.258 133.795C605.163 131.974 605.081 130.152 605 128.331C605.892 128.353 606.784 128.375 607.703 128.399C608.874 128.416 610.044 128.434 611.25 128.452C612.41 128.474 613.57 128.497 614.766 128.52C618.003 128.331 619.32 128.036 622 126.393C624.588 123.434 626.051 120.469 627 116.703C626.406 112.189 624.645 108.275 622.812 104.107C622.306 102.878 621.803 101.648 621.303 100.415C620.193 97.6864 619.061 94.9665 617.918 92.2505C614.608 84.3409 611.526 76.3431 608.402 68.3636C607.32 65.6079 606.228 62.857 605.134 60.1061C604.793 59.2457 604.452 58.3862 604.101 57.4996C603.456 55.8727 602.809 54.2458 602.158 52.6199C600 47.1569 600 47.1569 600 45Z" fill="#4CA780"/>
<path d="M583.294 49.1242C587.909 52.5992 589.876 55.5073 590.999 61.0429C591.281 64.2812 591.3 67.5071 591.308 70.755C591.333 72.6466 591.358 74.5392 591.384 76.4309C591.413 79.3838 591.437 82.3367 591.455 85.2887C591.477 88.1596 591.517 91.0295 591.558 93.8994C591.558 95.2031 591.558 95.2031 591.558 96.5336C591.644 101.902 592.527 106.44 594.359 111.524C595 113.535 595 113.535 595 116.399C588.398 116.399 581.796 116.399 574.995 116.399C574.334 114.509 573.674 112.619 572.994 110.672C572.181 111.155 571.367 111.637 570.528 112.134C560.368 117.63 550.908 119.517 539.341 116.712C533.267 114.186 529.178 109.434 526.544 103.753C525.544 97.3926 525.69 91.25 528.982 85.4997C535.256 77.4845 545.747 75.7847 555.427 73.6297C557.345 73.184 557.345 73.184 559.301 72.7287C568.611 70.587 568.611 70.587 570.993 70.587C570.702 66.1776 570.702 66.1776 568.747 62.3065C565.333 59.847 561.139 59.993 556.99 60.0885C554.094 60.663 552.592 61.4304 549.988 62.9517C548.932 64.5103 547.923 66.0984 546.987 67.7238C540.407 67.3325 534.243 66.8973 527.982 64.8605C531.072 56.3758 534.599 51.2774 542.986 46.7267C555.135 43.1878 572.342 42.2467 583.294 49.1242ZM559.553 85.619C558.897 85.7698 558.242 85.9196 557.566 86.0742C553.202 87.1603 550.256 88.6234 546.987 91.584C545.734 94.054 545.914 95.1211 546.612 97.7877C548.37 100.838 549.83 102.223 552.988 103.991C557.819 104.576 559.923 104.52 564.242 102.381C568.168 99.331 568.168 99.331 570.993 95.4017C571.319 91.563 571.224 87.7912 570.993 83.9487C566.92 83.9487 563.451 84.6445 559.553 85.619Z" fill="#4CA780"/>
<path d="M67.9233 44.0016C68.628 44.0073 69.3328 44.0122 70.0595 44.0179C79.3241 44.2262 86.3289 46.7029 93.0316 52.9791C101.845 63.2205 103 73.6913 103 86.7218C87.2091 86.7218 71.4192 86.7218 55.1518 86.7218C57.4565 95.6366 57.4565 95.6366 63.1265 101.183C65.4441 102.304 66.9015 102.308 69.4803 102.328C70.2489 102.342 71.0175 102.355 71.8089 102.37C74.5373 102.104 75.8461 101.789 78.079 100.219C79.5992 98.0352 80.8084 95.8169 82.0664 93.4703C84.6412 93.7692 87.2161 94.071 89.7919 94.3746C90.5186 94.4585 91.2463 94.5424 91.9949 94.6292C95.3991 95.0331 98.6897 95.5123 102.003 96.3626C99.6935 104.178 95.108 110.253 88.0474 114.68C81.9877 117.265 76.3087 118.076 69.7295 117.995C68.9052 117.988 68.0798 117.981 67.2295 117.974C59.0494 117.768 52.7673 115.949 45.8682 111.668C37.1409 102.639 33.8155 92.0589 34.0079 79.8498C34.8193 69.164 37.2695 59.0045 45.8054 51.7065C52.9886 46.4397 58.8221 43.9283 67.9233 44.0016ZM58.2659 64.2472C55.5057 67.9039 55.5057 67.9039 55.1518 75.1529C64.3626 75.1529 73.5733 75.1529 83.0632 75.1529C82.5239 67.9888 82.5239 67.9888 79.0759 62.6198C71.2497 57.8014 65.1969 57.9817 58.2659 64.2472Z" fill="#F1DA2F"/>
<path d="M408.003 47.3093C413.78 51.2247 417.104 56.1969 418.423 62.861C418.854 65.7243 419.007 68.392 419 71.2814C419 72.8142 419 72.8142 419 74.3778C418.994 75.4656 418.989 76.5523 418.984 77.6728C418.983 78.7981 418.981 79.9224 418.98 81.0824C418.974 84.6644 418.962 88.2474 418.949 91.8304C418.944 94.264 418.939 96.6976 418.935 99.1313C418.924 105.087 418.907 111.044 418.886 117C412.297 117 405.708 117 398.92 117C398.871 114.052 398.822 111.103 398.772 108.065C398.718 105.183 398.661 102.3 398.604 99.4174C398.566 97.4279 398.531 95.4375 398.499 93.447C398.453 90.5721 398.395 87.6973 398.335 84.8234C398.324 83.9457 398.312 83.068 398.3 82.1633C398.133 71.8325 398.133 71.8325 394.178 62.5055C390.721 60.3744 387.993 59.7607 383.923 60.5488C379.998 61.7319 378.205 62.7579 375.523 65.8775C373.468 69.7649 372.846 72.8508 372.76 77.1882C372.74 78.0745 372.72 78.9618 372.7 79.8761C372.675 81.3001 372.675 81.3001 372.649 82.7529C372.628 83.7308 372.607 84.7097 372.586 85.7174C372.521 88.8389 372.462 91.9604 372.403 95.082C372.36 97.1996 372.316 99.3172 372.272 101.435C372.165 106.623 372.066 111.811 371.966 117C365.377 117 358.788 117 352 117C352 93.473 352 69.9461 352 45.7062C357.93 45.7062 363.86 45.7062 369.969 45.7062C370.299 48.5675 370.628 51.4289 370.968 54.377C371.452 53.9233 371.936 53.4704 372.434 53.0032C382.221 44.2302 395.475 40.9603 408.003 47.3093Z" fill="#F1DA2F"/>
<path d="M0 19C6.93 19 13.86 19 21 19C21 51.34 21 83.68 21 117C14.07 117 7.14 117 0 117C0 84.66 0 52.32 0 19Z" fill="#F1DA2F"/>
<path d="M284 0C287.477 1.256 290.094 2.733 293 5C292.807 5.571 292.613 6.142 292.414 6.73C290.165 13.735 288.97 20.716 288 28C287.325 28.037 286.649 28.075 285.953 28.113C285.061 28.179 284.169 28.245 283.25 28.312C282.368 28.371 281.487 28.429 280.578 28.488C277.944 28.797 277.944 28.797 276.157 30.54C269.359 35.142 253.815 29.77 245.879 28.416C243.412 27.996 240.943 27.583 238.475 27.172C236.898 26.907 235.322 26.641 233.746 26.375C232.645 26.191 232.645 26.191 231.521 26.002C228.584 25.499 225.832 24.944 223 24C224.367 18.362 228.525 15.306 233 12C241.906 6.647 251.621 5.236 261.859 7.684C267.57 9.821 275.157 13.314 278 19C278.266 18.047 278.531 17.095 278.805 16.113C279.158 14.859 279.511 13.605 279.875 12.312C280.397 10.45 280.397 10.45 280.93 8.551C281.816 5.612 282.802 2.822 284 0Z" fill="#40A783"/>
<path d="M294.812 175.063C297.797 177.707 298.767 180.237 300 184.001C300 185.65 300 187.301 300 189.001C294.06 189.001 288.12 189.001 282 189.001C282.329 190.65 282.66 192.301 283 194.001C285.639 194.33 288.279 194.661 291 195.001C291.99 193.681 292.98 192.361 294 191.001C295.98 191.33 297.959 191.661 300 192.001C297.899 195.98 295.862 198.631 292 201.001C287.666 201.631 285.572 201.303 281.687 199.251C278.275 196.394 277.168 194.593 276.699 190.161C276.695 189.138 276.691 188.116 276.687 187.063C276.67 186.043 276.653 185.024 276.636 183.973C277.049 180.598 278.027 178.741 280 176.001C284.254 172.691 290.034 173.258 294.812 175.063ZM283.624 179.813C281.801 181.814 281.801 181.814 282 184.001C286.29 184.001 290.579 184.001 295 184.001C292.646 178.885 292.646 178.885 289.062 177.938C285.908 177.701 285.908 177.701 283.624 179.813Z" fill="#BEC845"/>
<path d="M319.375 174.812C321 176 321 176 323 179C323 179.99 323 180.98 323 182C320.75 182.75 320.75 182.75 318 183C316.667 181.666 315.333 180.333 314 179C311.293 179.14 311.293 179.14 309 180C309 180.66 309 181.319 309 182C309.831 182.242 310.663 182.484 311.52 182.734C312.606 183.069 313.693 183.404 314.813 183.75C315.891 184.074 316.97 184.399 318.082 184.734C321.227 186.098 322.402 187 324 190C323.893 196.107 323.893 196.107 321.125 198.874C316.477 201.335 311.823 201.862 306.75 200.312C304.397 198.548 303.306 196.611 302 194C302 193.339 302 192.68 302 192C303.98 191.67 305.96 191.339 308 191C308 192.319 308 193.639 308 195C310.64 195 313.28 195 316 195C316 193.68 316 192.36 316 191C315.313 190.818 314.626 190.636 313.918 190.449C313.017 190.197 312.116 189.946 311.187 189.687C310.294 189.443 309.401 189.2 308.48 188.949C305.893 187.959 304.644 187.211 303 185C302.35 178.929 302.35 178.929 304.313 176.124C308.733 173.177 314.461 173.131 319.375 174.812Z" fill="#B7C647"/>
<path d="M71 165C73.738 164.633 73.738 164.633 77 165C79.23 167.555 79.23 167.555 81.188 170.875C83.917 175.567 83.917 175.567 88 179C88.275 178.274 88.549 177.549 88.832 176.801C90.644 172.456 92.746 168.438 96 165C99.875 164.438 99.875 164.438 103 165C101.942 166.857 100.878 168.71 99.812 170.562C99.177 171.672 98.541 172.782 97.887 173.926C96.405 176.339 95.011 178.187 93.125 180.25C89.112 185.474 90.083 193.721 90 200C88.02 200 86.04 200 84 200C84.067 199.21 84.134 198.42 84.203 197.605C84.366 185.707 78.796 178.164 72.086 168.749C71 167 71 167 71 165Z" fill="#EDD72D"/>
<path d="M389.875 175.188C392.44 177.375 392.732 178.699 393 182C390.75 182.75 390.75 182.75 388 183C386.646 181.688 385.313 180.354 384 179C381.332 178.666 381.332 178.666 379 179C379 179.991 379 180.981 379 182C379.831 182.243 380.663 182.485 381.52 182.735C382.606 183.07 383.693 183.405 384.813 183.75C385.891 184.075 386.97 184.4 388.082 184.735C391.226 186.099 392.406 186.999 394 190C393.877 193.519 393.736 195.997 391.625 198.876C387.935 201.43 384.336 201.3 380 201C376.332 199.333 374.107 197.438 372 194C372 193.34 372 192.681 372 192C373.98 191.671 375.96 191.34 378 191C378.66 192.32 379.32 193.64 380 195C381.98 195 383.96 195 386 195C386.66 193.681 387.32 192.361 388 191C387.42 190.914 386.84 190.828 386.242 190.739C380.499 189.706 376.826 188.532 373 184C372.75 180.376 372.75 180.376 374 177C378.99 173.318 384.165 172.83 389.875 175.188Z" fill="#A6BF4F"/>
<path d="M195 174C198 175.75 198 175.75 200 178C200 179.32 200 180.64 200 182C198.35 182.33 196.7 182.66 195 183C195 182.01 195 181.02 195 180C192.03 179.67 189.06 179.34 186 179C186 179.99 186 180.98 186 182C187.499 182.507 187.499 182.507 189.027 183.023C190.331 183.474 191.634 183.924 192.938 184.375C193.597 184.597 194.256 184.818 194.936 185.047C199.887 186.773 199.887 186.773 201 189C201.136 192.122 200.885 194.998 200 198C195.9 201.221 192.103 201.557 187 201C182.35 199.098 180.921 196.549 179 192C180.98 191.67 182.96 191.34 185 191C185.33 191.99 185.66 192.98 186 194C188.709 195.354 191.009 195.065 194 195C194.33 193.68 194.66 192.36 195 191C194.42 190.914 193.84 190.827 193.242 190.738C187.499 189.705 183.826 188.531 180 184C179.75 180.375 179.75 180.375 181 177C185.518 173.584 189.563 173.396 195 174Z" fill="#D5CF39"/>
<path d="M597 176C599 179 599 179 599 182C596.75 182.75 596.75 182.75 594 183C592.667 181.667 591.333 180.333 590 179C587.293 179.14 587.293 179.14 585 180C585 180.66 585 181.32 585 182C585.831 182.242 586.663 182.485 587.52 182.734C588.606 183.07 589.693 183.405 590.812 183.75C591.891 184.075 592.97 184.4 594.082 184.734C597.226 186.098 598.406 186.999 600 190C599.878 193.487 599.714 195.98 597.688 198.875C593.799 201.467 589.562 201.472 585 201C581.819 199.225 579.442 197.169 578.125 193.688C578.063 192.852 578.063 192.852 578 192C579.98 191.67 581.96 191.34 584 191C584 192.32 584 193.64 584 195C586.64 195 589.28 195 592 195C592.66 193.68 593.32 192.36 594 191C593.42 190.914 592.84 190.827 592.242 190.738C586.499 189.705 582.826 188.531 579 184C579 179.948 579.098 177.902 582 175C586.823 173.214 592.697 172.972 597 176Z" fill="#75B268"/>
<path d="M342.875 175.188C345.44 177.375 345.732 178.699 346 182C344.35 182.33 342.7 182.661 341 183C340.629 182.34 340.257 181.681 339.875 181C338.091 178.647 338.091 178.647 334.813 178.75C333.884 178.833 332.956 178.916 332 179C332 179.991 332 180.981 332 182C332.831 182.254 333.663 182.508 334.52 182.77C335.606 183.114 336.693 183.458 337.813 183.813C339.431 184.318 339.431 184.318 341.082 184.833C343.864 185.946 345.33 186.542 347 189C347.418 192.158 347.005 194.985 346 198C341.9 201.222 338.103 201.557 333 201C328.35 199.098 326.921 196.549 325 192C326.98 191.671 328.96 191.34 331 191C331.66 192.32 332.32 193.64 333 195C335.31 195 337.62 195 340 195C340.33 193.681 340.66 192.361 341 191C340.42 190.914 339.84 190.828 339.242 190.739C333.499 189.706 329.826 188.532 326 184C325.75 180.376 325.75 180.376 327 177C331.99 173.318 337.165 172.83 342.875 175.188Z" fill="#B4C64B"/>
<path d="M117.812 174.938C121.689 178.594 122.888 183.198 123.097 188.45C122.844 192.182 122.445 194.401 120.187 197.438C115.998 200.43 113.273 201.633 108 201C104.342 198.961 102.33 197.496 100 194C98.6625 182.541 98.6625 182.541 101.05 178.004C105.831 173.252 111.663 172.888 117.812 174.938ZM106.335 180.176C104.507 182.673 104.566 184.43 104.562 187.5C104.543 188.46 104.523 189.419 104.503 190.407C104.77 193.114 104.77 193.114 106.835 194.836C109.04 196.226 109.04 196.226 112.062 196.126C115.294 195.221 115.294 195.221 117 191.876C118.428 187.824 117.628 184.955 116 181C114.12 178.702 114.12 178.702 111.062 178.688C108.081 178.739 108.081 178.739 106.335 180.176Z" fill="#E8D52F"/>
<path d="M427.812 174.938C431.689 178.594 432.888 183.198 433.097 188.45C432.844 192.182 432.445 194.401 430.187 197.438C425.998 200.43 423.273 201.633 418 201C414.342 198.961 412.33 197.496 410 194C408.662 182.541 408.662 182.541 411.05 178.004C415.831 173.252 421.663 172.888 427.812 174.938ZM416.335 180.176C414.507 182.673 414.566 184.43 414.562 187.5C414.543 188.46 414.523 189.419 414.503 190.407C414.77 193.114 414.77 193.114 416.835 194.836C419.04 196.226 419.04 196.226 422.062 196.126C425.294 195.221 425.294 195.221 427 191.876C428.428 187.824 427.628 184.955 426 181C424.12 178.702 424.12 178.702 421.062 178.688C418.081 178.739 418.081 178.739 416.335 180.176Z" fill="#9EBF55"/>
<path d="M521.875 175.25C525.061 177.874 525.885 179.952 526.336 184.059C526.349 185.174 526.362 186.289 526.375 187.438C526.403 188.55 526.432 189.662 526.461 190.809C525.907 194.646 524.66 196.24 522 199C518.731 201.289 515.93 201.472 512 201C507.691 198.888 505.075 196.671 503.406 192.062C502.334 186.621 502.991 181.648 505.875 176.938C510.353 172.854 516.544 172.932 521.875 175.25ZM509.563 180.938C507.397 185.181 507.653 188.481 509 193C510.521 195.288 510.521 195.288 513 196C516.134 196.089 516.134 196.089 519 195C521.51 192.147 521.362 188.554 521.246 184.906C520.884 182.098 520.216 180.773 518 179C514.14 178.261 512.657 178.478 509.563 180.938Z" fill="#88B860"/>
<path d="M554 175C555.65 175 557.3 175 559 175C559.061 176.276 559.121 177.552 559.184 178.867C559.268 180.536 559.353 182.206 559.438 183.875C559.477 184.717 559.516 185.559 559.557 186.426C559.599 187.231 559.64 188.037 559.684 188.867C559.72 189.611 559.757 190.354 559.795 191.121C559.9 193.089 559.9 193.089 561 195C563.373 195.418 563.373 195.418 566 195C569.188 191.015 569.522 187.117 569.688 182.188C569.722 181.495 569.756 180.802 569.791 180.088C569.873 178.392 569.938 176.696 570 175C571.65 175 573.3 175 575 175C575 183.25 575 191.5 575 200C572.667 200 570.333 200 568 200C567.34 200.33 566.68 200.66 566 201C563.941 201.02 563.941 201.02 561.562 200.812C560.78 200.757 559.998 200.702 559.191 200.645C556.249 199.779 555.578 198.595 554 196C553.659 193.618 553.659 193.618 553.707 191.016C553.717 190.081 553.726 189.146 553.736 188.184C553.761 187.216 553.787 186.247 553.812 185.25C553.826 184.266 553.84 183.283 553.854 182.27C553.889 179.846 553.938 177.423 554 175Z" fill="#7CB466"/>
<path d="M205 175C206.65 175 208.3 175 210 175C210.061 176.276 210.121 177.552 210.184 178.867C210.268 180.536 210.353 182.206 210.438 183.875C210.477 184.717 210.516 185.559 210.557 186.426C210.599 187.231 210.64 188.037 210.684 188.867C210.72 189.611 210.757 190.354 210.795 191.121C210.9 193.089 210.9 193.089 212 195C214.373 195.418 214.373 195.418 217 195C220.188 191.015 220.522 187.117 220.688 182.188C220.722 181.495 220.756 180.802 220.791 180.088C220.873 178.392 220.938 176.696 221 175C222.65 175 224.3 175 226 175C226 183.25 226 191.5 226 200C223.333 200 220.667 200 218 200C216.886 200.227 215.772 200.454 214.625 200.688C210.525 201.041 209.17 200.517 206 198C204.774 195.547 204.886 193.949 204.902 191.211C204.906 190.27 204.909 189.329 204.912 188.359C204.92 187.375 204.929 186.39 204.938 185.375C204.942 184.382 204.947 183.39 204.951 182.367C204.963 179.911 204.979 177.456 205 175Z" fill="#D0CE3D"/>
<path d="M437 175C438.65 175 440.3 175 442 175C442.025 175.57 442.05 176.141 442.076 176.728C442.192 179.298 442.314 181.868 442.438 184.438C442.477 185.335 442.516 186.233 442.557 187.158C442.599 188.012 442.64 188.866 442.684 189.746C442.72 190.537 442.757 191.328 442.795 192.142C442.806 194.014 442.806 194.014 444 195C445.666 195.041 447.334 195.043 449 195C451.622 190.431 452.44 186.87 452.688 181.625C452.753 180.38 452.819 179.135 452.887 177.852C452.924 176.911 452.961 175.97 453 175C454.65 175 456.3 175 458 175C458 183.25 458 191.5 458 200C455.333 200 452.667 200 450 200C448.886 200.227 447.773 200.454 446.625 200.688C442.525 201.041 441.17 200.517 438 198C436.774 195.547 436.886 193.949 436.902 191.211C436.906 190.27 436.909 189.329 436.912 188.359C436.92 187.375 436.929 186.39 436.938 185.375C436.942 184.382 436.947 183.39 436.951 182.367C436.963 179.911 436.979 177.456 437 175Z" fill="#99BE59"/>
<path d="M127 175C128.65 175 130.3 175 132 175C132.025 175.57 132.05 176.141 132.076 176.728C132.192 179.298 132.314 181.868 132.438 184.438C132.477 185.335 132.516 186.233 132.557 187.158C132.599 188.012 132.64 188.866 132.684 189.746C132.72 190.537 132.757 191.328 132.795 192.142C132.806 194.014 132.806 194.014 134 195C135.666 195.041 137.334 195.043 139 195C141.622 190.431 142.44 186.87 142.688 181.625C142.753 180.38 142.819 179.135 142.887 177.852C142.924 176.911 142.961 175.97 143 175C144.65 175 146.3 175 148 175C148 183.25 148 191.5 148 200C145.333 200 142.667 200 140 200C138.886 200.227 137.772 200.454 136.625 200.688C132.525 201.041 131.17 200.517 128 198C126.774 195.547 126.886 193.949 126.902 191.211C126.906 190.27 126.909 189.329 126.912 188.359C126.92 187.375 126.929 186.39 126.938 185.375C126.942 184.382 126.947 183.39 126.951 182.367C126.963 179.911 126.979 177.456 127 175Z" fill="#E4D534"/>
<path d="M545 174C548.328 175.953 549.712 177.025 550.812 180.75C550.874 181.493 550.936 182.235 551 183C548.688 183.25 548.688 183.25 546 183C545.526 182.34 545.051 181.68 544.562 181C544.047 180.34 543.531 179.68 543 179C539.874 178.666 539.874 178.666 537 179C535.212 185.539 535.212 185.539 535.875 192.125C536.246 192.744 536.617 193.363 537 194C539.31 194.33 541.62 194.66 544 195C544.66 193.35 545.32 191.7 546 190C547.65 190.33 549.3 190.66 551 191C550.52 195.316 549.298 197.202 546 200C543.134 201.433 541.187 201.306 538 201C533.694 198.889 531.07 196.673 529.41 192.062C528.589 187.932 528.864 184.044 530 180C534.287 174.472 538.132 173.408 545 174Z" fill="#82B662"/>
<path d="M247.812 175.125C250.563 177.483 251.151 179.528 252 183C249.75 183.25 249.75 183.25 247 183C246.339 182.319 245.68 181.639 245 180.937C244.339 180.298 243.68 179.659 243 179C240.356 178.912 240.356 178.912 238 180C235.514 183.729 235.696 186.691 236 191C236.417 193.355 236.417 193.355 237 195C240.374 195.417 240.374 195.417 244 195C246.008 192.627 246.008 192.627 247 190C248.649 190.33 250.3 190.66 252 191C251.12 194.517 250.288 196.687 247.812 199.375C244.18 201.474 242.142 201.581 238 201C233.991 198.882 231.623 197.233 230 193C229.362 187.609 229.061 182.676 231.75 177.875C236.794 173.671 241.451 172.58 247.812 175.125Z" fill="#C9CB3F"/>
<path d="M271.875 175.688C274.196 178.214 274.719 179.628 275 183C272.687 183.25 272.687 183.25 270 183C268.187 181 268.187 181 267 179C264.053 179.102 264.053 179.102 261 180C258.935 183.053 258.997 184.942 259.187 188.626C259.776 191.888 259.776 191.888 261.25 193.938C263.584 195.355 265.321 195.218 268 195C268.66 193.351 269.32 191.7 270 190C271.65 190.33 273.3 190.661 275 191C274.52 195.316 273.298 197.202 270 200C267.134 201.434 265.187 201.307 262 201C257.15 198.528 254.755 196.168 253 191C252.305 186.222 252.542 182.934 254.687 178.563C259.331 173.417 265.734 172.084 271.875 175.688Z" fill="#C5CB42"/>
<path d="M504 165C503.67 166.65 503.34 168.3 503 170C501.35 170.33 499.7 170.66 498 171C497.67 172.32 497.34 173.64 497 175C498.65 175 500.3 175 502 175C502 176.32 502 177.64 502 179C500.35 179 498.7 179 497 179C497 185.93 497 192.86 497 200C495.35 200 493.7 200 492 200C492 193.07 492 186.14 492 179C490.68 179 489.36 179 488 179C488 177.68 488 176.36 488 175C489.32 175 490.64 175 492 175C491.918 174.092 491.835 173.185 491.75 172.25C492 169 492 169 493.5 166.625C497.133 164.264 499.718 164.715 504 165Z" fill="#8EBB5F"/>
<path d="M475 174C475.66 174.66 476.32 175.32 477 176C476.625 178.125 476.625 178.125 476 180C473.69 180 471.38 180 469 180C468.67 186.6 468.34 193.2 468 200C466.35 200 464.7 200 463 200C463 191.75 463 183.5 463 175C470.742 173.71 470.742 173.71 475 174Z" fill="#94BC5B"/>
<path d="M165 174C165.66 174.66 166.32 175.32 167 176C166.625 178.125 166.625 178.125 166 180C163.69 180 161.38 180 159 180C158.67 186.6 158.34 193.2 158 200C156.35 200 154.7 200 153 200C153 191.75 153 183.5 153 175C160.742 173.71 160.742 173.71 165 174Z" fill="#DFD336"/>
<path d="M364 175C365.65 175 367.3 175 369 175C369 183.25 369 191.5 369 200C367.35 200 365.7 200 364 200C364 191.75 364 183.5 364 175Z" fill="#AEC54F"/>
<path d="M304 56C304.625 58.375 304.625 58.375 305 61C303 63 303 63 300.5 63.25C298 63 298 63 296 61C296.25 58.438 296.25 58.438 297 56C299.667 54.667 301.167 55.329 304 56Z" fill="#FEFCE7"/>
<path d="M304 65C306.625 65.375 306.625 65.375 309 66C309.625 68.375 309.625 68.375 310 71C309.34 71.66 308.68 72.32 308 73C305.375 72.625 305.375 72.625 303 72C302.375 69.625 302.375 69.625 302 67C302.66 66.34 303.32 65.68 304 65Z" fill="#FEFDF5"/>
<path d="M296 63.9999C297 64.9999 297 64.9999 297.125 67.4999C297 69.9999 297 69.9999 296 70.9999C293.562 71.1879 293.562 71.1879 291 70.9999C290.34 70.3399 289.68 69.6799 289 68.9999C289.25 66.4379 289.25 66.4379 290 63.9999C292.503 62.7489 293.403 63.1619 296 63.9999Z" fill="#FEFDEF"/>
<path d="M364 165C365.65 165 367.3 165 369 165C369 166.98 369 168.96 369 171C367.35 171 365.7 171 364 171C364 169.02 364 167.04 364 165Z" fill="#AEC54F"/>
</svg>
